<svg width="1920" height="300" viewBox="0 0 1920 300" fill="none" xmlns="http://www.w3.org/2000/svg">
<rect width="1920" height="300" fill="url(#paint0_linear_37_53)"/>
<path d="M592 142.769V121.287H599.056C600.517 121.287 601.934 121.565 603.268 122.115C604.564 122.648 605.727 123.416 606.722 124.392C607.723 125.374 608.511 126.524 609.06 127.806C609.628 129.134 609.917 130.551 609.917 132.014C609.917 133.477 609.628 134.894 609.06 136.225C608.511 137.51 607.726 138.659 606.725 139.646C605.727 140.629 604.567 141.399 603.271 141.935C601.937 142.488 600.517 142.769 599.056 142.769H592V142.769ZM599.056 138.45C600.812 138.45 602.455 137.785 603.687 136.571C604.914 135.364 605.589 133.744 605.589 132.014C605.589 130.287 604.914 128.675 603.69 127.473C602.461 126.268 600.815 125.605 599.056 125.605H596.328V138.45H599.056Z" fill="white" stroke="white" stroke-width="0.5" stroke-miterlimit="2"/>
<path d="M612.065 142.741H625.985V138.725H612.065V142.741ZM612.065 134.104H625.985V130.006H612.065V134.104ZM612.065 121.287V125.385H625.985V121.287H612.065Z" fill="white" stroke="white" stroke-width="0.5" stroke-miterlimit="2"/>
<path d="M627.749 121.287H632.41L637.62 135.54L642.83 121.287H647.463L639.348 142.741H635.864L627.749 121.287Z" fill="white" stroke="white" stroke-width="0.5" stroke-miterlimit="2"/>
<path d="M649.614 122.662L653.942 121.287V138.643H663.617V142.741H649.614V122.662Z" fill="white" stroke="white" stroke-width="0.5" stroke-miterlimit="2"/>
<path d="M671.184 141.998C669.888 141.451 668.725 140.67 667.727 139.674C666.729 138.678 665.947 137.518 665.398 136.225C664.83 134.885 664.543 133.463 664.543 132C664.543 130.537 664.83 129.115 665.398 127.775C665.947 126.483 666.729 125.322 667.727 124.326C668.725 123.33 669.888 122.549 671.184 122.002C672.526 121.435 673.951 121.149 675.418 121.149C676.884 121.149 678.309 121.435 679.652 122.002C680.947 122.549 682.11 123.33 683.108 124.326C684.106 125.322 684.889 126.483 685.437 127.775C686.005 129.115 686.292 130.537 686.292 132C686.292 133.463 686.005 134.885 685.437 136.225C684.889 137.518 684.106 138.678 683.108 139.674C682.11 140.67 680.947 141.451 679.652 141.998C678.309 142.565 676.884 142.851 675.418 142.851C673.951 142.851 672.526 142.565 671.184 141.998ZM670.787 127.382C669.549 128.617 668.868 130.256 668.868 132.003C668.868 133.749 669.549 135.389 670.787 136.624C672.025 137.859 673.667 138.538 675.418 138.538C677.168 138.538 678.811 137.859 680.049 136.624C681.286 135.389 681.967 133.749 681.967 132.003C681.967 130.256 681.286 128.617 680.049 127.382C678.811 126.147 677.165 125.468 675.418 125.468C673.67 125.468 672.025 126.147 670.787 127.382Z" fill="white" stroke="white" stroke-width="0.5" stroke-miterlimit="2"/>
<path d="M701.713 123.305C700.412 121.966 698.512 121.287 696.065 121.287H688.264V142.741H692.592V125.385H695.817C696.884 125.385 697.738 125.638 698.284 126.119C698.824 126.59 699.097 127.308 699.097 128.245C699.097 129.153 698.832 129.857 698.311 130.339C697.699 130.902 696.732 131.189 695.431 131.189H694.704V135.287H695.652C696.77 135.287 697.804 135.152 698.719 134.888C699.695 134.605 700.541 134.173 701.239 133.603C701.975 133.001 702.542 132.247 702.926 131.362C703.312 130.468 703.507 129.439 703.507 128.3C703.507 126.243 702.887 124.516 701.713 123.305Z" fill="white" stroke="white" stroke-width="0.5" stroke-miterlimit="2"/>
<path d="M715.821 121.287H712.092L703.947 142.741H708.528L713.95 127.869L719.419 142.741H724L715.821 121.287Z" fill="white" stroke="white" stroke-width="0.5" stroke-miterlimit="2"/>
<path d="M713.988 142.741L710.565 137.454H717.381L713.988 142.741Z" fill="white" stroke="white" stroke-width="0.5" stroke-miterlimit="2"/>
<path d="M756.082 118.918H752.039V145.812H756.082V118.918ZM732.908 130.578C732.894 136.73 735.208 140.48 738.768 140.48C742.093 140.48 744.349 137.316 744.7 132.043H746.443V144.611H750.428V119.27H746.443V128.703H744.671C744.231 123.708 742.005 120.734 738.768 120.734C735.208 120.734 732.894 124.47 732.908 130.578ZM736.775 130.578C736.761 126.55 737.479 124.719 738.768 124.719C740.115 124.719 740.877 126.55 740.877 130.578C740.877 134.636 740.115 136.438 738.768 136.438C737.479 136.438 736.761 134.636 736.775 130.578ZM769.031 124.631V120.91H764.754V124.631C764.725 129.729 762.952 134.929 758.133 137.053L760.77 140.51C763.802 139.03 765.765 136.335 766.893 133.01C767.991 136.13 769.881 138.62 772.811 140.012L775.359 136.643C770.716 134.68 769.031 129.758 769.031 124.631ZM772.342 130.549H777.264V145.871H781.424V118.918H777.264V127.15H772.342V130.549ZM814.5 118.918H810.486V128.879H808.406V119.621H804.51V144.67H808.406V132.277H810.486V145.812H814.5V118.918ZM790.828 137.463L793.26 140.363C800.789 135.939 802.986 129.89 802.986 122.199H792.293V125.539H798.87C798.328 130.695 796.043 134.343 790.828 137.463ZM822.059 120.148H817.898V131.896H831.053V120.148H826.834V123.137H822.059V120.148ZM820.564 136.672H834.393V138.02H820.594V145.666H839.314V142.355H824.754V141.008H838.611V133.449H820.564V136.672ZM822.059 128.615V126.271H826.834V128.615H822.059ZM834.393 132.541H838.611V127.355H842.098V123.957H838.611V118.918H834.393V132.541ZM860.496 125.949V124.895H865.887V121.467H850.682V124.895H856.189V125.949C856.189 130.476 854.227 135.412 849.568 137.463L851.971 140.773C855.12 139.367 857.229 136.584 858.416 133.2C859.603 136.276 861.668 138.796 864.803 140.1L867.059 136.789C862.386 134.885 860.496 130.227 860.496 125.949ZM868.172 145.812H872.42V118.918H868.172V145.812ZM886.307 122.697V120.148H881.912V122.697C881.912 125.949 880.198 129.348 875.555 130.783L877.635 134.094C880.784 133.127 882.894 131.149 884.109 128.645C885.311 130.959 887.347 132.761 890.379 133.684L892.459 130.373C887.903 129.069 886.277 125.891 886.307 122.697ZM879.773 139.367H894.129V145.812H898.348V136.027H879.773V139.367ZM894.129 134.914H898.348V118.918H894.129V134.914ZM915.926 143.322C917.742 143.322 919.72 142.839 921.346 141.682L922.547 143H927.586L924.334 139.323C925.623 137.595 926.326 135.192 926.326 132.365H922.312C922.312 133.742 921.976 134.973 921.404 136.013L918.211 132.409L919.354 131.574C921.155 130.3 922.181 128.63 922.195 126.652C922.181 123.84 920.042 121.481 916.57 121.496C912.981 121.481 910.608 123.972 910.623 127.121C910.608 128.996 911.487 130.578 912.513 131.926C910.257 133.464 908.719 134.929 908.719 137.375C908.719 140.686 911.443 143.322 915.926 143.322ZM913.494 137.053C913.479 136.188 914.021 135.412 914.988 134.738L918.665 138.752C917.874 139.162 917.039 139.396 916.219 139.396C914.549 139.396 913.479 138.444 913.494 137.053ZM914.725 127.18C914.739 126.184 915.472 125.437 916.6 125.422C917.757 125.422 918.372 126.184 918.387 126.945C918.372 127.692 917.962 128.425 916.951 129.055L915.926 129.714C915.208 128.791 914.739 127.985 914.725 127.18ZM945.135 125.949V124.895H950.35V121.467H935.379V124.895H940.857V125.949C940.857 130.344 938.938 135.31 934.266 137.463L936.697 140.803C939.788 139.367 941.897 136.525 943.069 133.127C944.256 136.188 946.277 138.767 949.236 140.1L951.58 136.789C946.995 134.694 945.105 129.978 945.135 125.949ZM952.049 145.812H956.268V132.482H960.076V128.996H956.268V118.918H952.049V145.812ZM983.455 118.947H979.236V138.547H983.455V118.947ZM960.633 131.633L962.83 134.943C965.95 133.933 968.03 131.853 969.231 129.245C970.403 131.662 972.425 133.537 975.428 134.504L977.566 131.193C973.011 129.787 971.385 126.374 971.414 122.99V120.412H967.02V122.99C967.02 126.447 965.306 130.124 960.633 131.633ZM965.232 145.373H984.129V142.004H969.51V136.613H965.232V145.373ZM995.467 120.676C991.233 120.661 987.938 123.459 987.938 127.355C987.938 131.267 991.233 134.05 995.467 134.035C999.744 134.05 1002.97 131.267 1003 127.355C1002.97 123.459 999.744 120.661 995.467 120.676ZM986.912 137.111L987.381 140.51C992.039 140.51 998.338 140.451 1004.23 139.309L1003.9 136.262C998.221 137.053 991.644 137.126 986.912 137.111ZM992.127 127.355C992.127 125.393 993.577 124.309 995.467 124.309C997.4 124.309 998.865 125.393 998.895 127.355C998.865 129.362 997.386 130.417 995.467 130.402C993.592 130.417 992.127 129.362 992.127 127.355ZM1005.34 145.871H1009.53V118.918H1005.34V145.871ZM1044.01 139.309H1019.43V142.795H1044.01V139.309ZM1021.28 124.543H1024.82V132.248H1021.39V135.588H1041.9V132.248H1038.42V124.543H1042.05V121.174H1021.28V124.543ZM1029.04 132.248V124.543H1034.26V132.248H1029.04ZM1069.94 139.484H1059.69V135.734H1067.8V132.336H1052.33V129.758H1067.19V120.588H1048.08V123.957H1063.03V126.477H1048.11V135.734H1055.53V139.484H1045.36V142.912H1069.94V139.484ZM1089.07 119.445H1085.09V125.48H1082.48V128.879H1085.09V135.178H1089.07V119.445ZM1070.76 131.926L1072.96 135.236C1075.36 134.313 1076.96 132.673 1077.91 130.637C1078.85 132.453 1080.33 133.918 1082.54 134.738L1084.65 131.516C1081.17 130.212 1079.92 127.531 1079.93 124.719V124.133H1083.71V120.793H1071.79V124.133H1075.83V124.689C1075.81 127.604 1074.48 130.563 1070.76 131.926ZM1075.74 139.543H1090.24V145.812H1094.46V136.203H1075.74V139.543ZM1090.45 135.295H1094.46V118.918H1090.45V135.295ZM1119.19 132.6H1104.33V129.934H1118.34V126.652H1104.33V124.191H1118.98V120.793H1100.03V135.91H1119.19V132.6ZM1097.21 142.795H1121.79V139.396H1097.21V142.795ZM1147.69 130.842H1123.11V133.918H1147.69V130.842ZM1125.87 137.873H1140.6V138.928H1125.9V145.607H1145.55V142.766H1130.09V141.564H1144.79V135.002H1125.87V137.873ZM1126.1 122.141H1140.54V123.225H1126.13V129.816H1145.23V127.004H1130.32V125.861H1144.79V119.328H1126.1V122.141ZM1167.88 135.588C1162.02 135.588 1158.24 137.463 1158.24 140.715C1158.24 143.923 1162.02 145.842 1167.88 145.812C1173.78 145.842 1177.49 143.923 1177.52 140.715C1177.49 137.463 1173.78 135.588 1167.88 135.588ZM1155.87 134.152H1180.24V130.754H1168.85V126.184H1164.69V130.754H1155.87V134.152ZM1158.56 123.371H1173.17C1173.15 125.085 1173.05 126.813 1172.48 129.084L1176.64 129.465C1177.42 126.711 1177.42 124.367 1177.4 122.258V120.09H1158.56V123.371ZM1162.46 140.715C1162.44 139.367 1164.36 138.708 1167.88 138.723C1171.38 138.708 1173.33 139.367 1173.33 140.715C1173.33 142.048 1171.38 142.634 1167.88 142.648C1164.36 142.634 1162.44 142.048 1162.46 140.715ZM1206.26 133.771H1181.68V137.141H1187.07V145.812H1191.38V137.141H1196.44V145.812H1200.72V137.141H1206.26V133.771ZM1184.05 125.891C1184.04 129.538 1188.08 131.853 1193.89 131.867C1199.71 131.853 1203.8 129.538 1203.8 125.891C1203.8 122.17 1199.71 119.768 1193.89 119.768C1188.08 119.768 1184.04 122.17 1184.05 125.891ZM1188.39 125.891C1188.37 124.06 1190.48 123.122 1193.89 123.107C1197.35 123.122 1199.43 124.06 1199.43 125.891C1199.43 127.634 1197.35 128.542 1193.89 128.557C1190.48 128.542 1188.37 127.634 1188.39 125.891ZM1227.15 122.844H1222.87V119.65H1218.71V122.844H1214.31V126.184H1227.15V122.844ZM1214.84 133.654C1214.83 137.463 1217.36 140.158 1220.82 140.158C1224.26 140.158 1226.72 137.463 1226.74 133.654C1226.72 129.875 1224.26 127.209 1220.82 127.209C1217.36 127.209 1214.83 129.875 1214.84 133.654ZM1218.53 133.654C1218.53 131.75 1219.44 130.681 1220.82 130.695C1222.12 130.681 1223.03 131.75 1223.04 133.654C1223.03 135.603 1222.12 136.599 1220.82 136.584C1219.44 136.599 1218.53 135.603 1218.53 133.654ZM1228.03 144.699H1231.95V133.098H1233.68V145.812H1237.69V118.918H1233.68V129.729H1231.95V119.416H1228.03V144.699ZM1264.85 139.367H1254.6V134.65H1262.21V120.588H1258V124.543H1247.01V120.588H1242.79V134.65H1250.44V139.367H1240.27V142.795H1264.85V139.367ZM1247.01 131.311V127.854H1258V131.311H1247.01ZM1275.02 125.393V121.145H1270.92V125.598C1270.92 130.139 1269.7 134.87 1265.64 137.404L1268.19 140.539C1270.52 139.133 1272.04 136.76 1272.97 133.933C1273.8 136.467 1275.18 138.591 1277.39 139.924L1279.68 136.672C1275.94 134.24 1275.02 129.787 1275.02 125.393ZM1276.86 131.223H1280V144.611H1283.92V119.27H1280V127.795H1276.86V131.223ZM1285.54 145.812H1289.58V118.918H1285.54V145.812ZM1316.71 139.338H1311.46V132.863C1313.41 131.604 1314.58 129.729 1314.6 127.414C1314.58 123.034 1310.22 120.119 1304.37 120.119C1298.51 120.119 1294.19 123.034 1294.21 127.414C1294.19 129.772 1295.41 131.677 1297.43 132.951V139.338H1292.13V142.766H1316.71V139.338ZM1298.4 127.414C1298.38 124.836 1300.71 123.415 1304.37 123.43C1308.01 123.415 1310.41 124.836 1310.41 127.414C1310.41 129.963 1308.01 131.457 1304.37 131.457C1300.71 131.457 1298.38 129.963 1298.4 127.414ZM1301.59 139.338V134.475C1302.47 134.621 1303.39 134.709 1304.37 134.709C1305.35 134.709 1306.31 134.621 1307.19 134.475V139.338H1301.59ZM1324.73 121.789H1319.67L1320.11 136.525H1324.29L1324.73 121.789ZM1319.55 140.627C1319.52 142.106 1320.74 143.293 1322.19 143.293C1323.59 143.293 1324.84 142.106 1324.85 140.627C1324.84 139.191 1323.59 138.02 1322.19 138.02C1320.74 138.02 1319.52 139.191 1319.55 140.627Z" fill="white" fill-opacity="0.6"/>
<path d="M1644.73 133.734C1643.61 133.12 1642.6 132.295 1641.7 131.26L1578.3 47.6194C1576.53 45.1913 1575.44 42.6809 1575.04 40.0882C1574.85 37.432 1575.41 34.9106 1576.71 32.5242L1577.63 30.8397C1578.94 28.4533 1580.72 26.6931 1582.98 25.5592C1585.46 24.3616 1588.2 23.8539 1591.2 24.0361L1695.83 32.2939C1697.18 32.487 1698.42 32.8906 1699.54 33.5048C1701.93 34.8099 1703.44 36.727 1704.06 39.2561C1704.9 41.7215 1704.67 44.1474 1703.36 46.5339C1702.44 48.2184 1701 49.5256 1699.03 50.4556C1697.28 51.3219 1695.37 51.6454 1693.3 51.426L1599.07 43.6587L1656.45 118.807C1657.75 120.43 1658.47 122.283 1658.61 124.364C1658.96 126.382 1658.68 128.233 1657.76 129.918C1656.45 132.304 1654.5 133.879 1651.89 134.642C1649.5 135.342 1647.11 135.039 1644.73 133.734Z" fill="white"/>
<path d="M1665.66 187.034C1663.13 185.652 1661.49 183.658 1660.72 181.053C1660.1 178.524 1660.44 176.066 1661.75 173.679C1662.21 172.837 1662.99 171.899 1664.11 170.866L1809.16 38.1954C1810.64 36.818 1812.39 35.9516 1814.41 35.5963C1816.42 35.241 1818.49 35.6392 1820.59 36.7908C1823.12 38.1727 1824.69 40.1282 1825.32 42.6573C1826.08 45.2631 1825.81 47.7592 1824.5 50.1456C1824.04 50.9879 1823.26 51.9256 1822.14 52.9586L1677.1 185.63C1675.61 187.007 1673.86 187.873 1671.84 188.229C1669.83 188.584 1667.76 188.186 1665.66 187.034Z" fill="white"/>
<path d="M1777.69 206.451C1775.3 205.146 1773.69 203.261 1772.85 200.795C1772.22 198.266 1772.57 195.808 1773.87 193.422C1774.79 191.737 1776.13 190.462 1777.88 189.596C1779.85 188.666 1781.86 188.31 1783.93 188.53L1878.16 196.297L1820.78 121.149C1819.48 119.526 1818.66 117.705 1818.3 115.687C1818.16 113.605 1818.55 111.722 1819.47 110.038C1820.78 107.651 1822.63 106.108 1825.02 105.409C1827.62 104.646 1830.12 104.916 1832.5 106.222C1833.77 106.913 1834.78 107.737 1835.53 108.696L1898.93 192.336C1900.7 194.765 1901.68 197.307 1901.87 199.963C1902.28 202.556 1901.83 205.045 1900.52 207.432L1899.6 209.116C1898.3 211.503 1896.4 213.294 1893.92 214.492C1891.66 215.626 1889.03 216.102 1886.03 215.92L1781.4 207.662C1780.19 207.546 1778.95 207.142 1777.69 206.451Z" fill="white"/>
<path fill-rule="evenodd" clip-rule="evenodd" d="M1405.76 215.593C1406.34 213.923 1407.56 212.553 1409.15 211.782C1410.74 211.012 1412.58 210.906 1414.25 211.487L1439.43 220.247C1441.1 220.828 1442.47 222.048 1443.24 223.64C1444.01 225.232 1444.12 227.064 1443.54 228.734L1439.16 241.327C1438.58 242.997 1437.36 244.368 1435.77 245.138C1434.17 245.908 1432.34 246.015 1430.67 245.434L1405.49 236.673C1403.82 236.093 1402.45 234.872 1401.68 233.281C1400.9 231.689 1400.8 229.857 1401.38 228.187L1405.76 215.593ZM1413.15 214.635C1412.32 214.345 1411.4 214.398 1410.6 214.783C1409.81 215.168 1409.2 215.853 1408.91 216.688L1404.53 229.282C1404.24 230.117 1404.29 231.033 1404.68 231.829C1405.06 232.624 1405.75 233.235 1406.58 233.525L1431.77 242.285C1432.6 242.576 1433.52 242.523 1434.31 242.138C1435.11 241.753 1435.72 241.067 1436.01 240.232L1440.39 227.639C1440.68 226.804 1440.63 225.888 1440.24 225.092C1439.86 224.296 1439.17 223.686 1438.34 223.395L1413.15 214.635ZM1414.68 218.786C1415.03 218.79 1415.37 218.905 1415.65 219.113C1415.93 219.322 1416.14 219.613 1416.24 219.946L1418.1 225.768L1423.17 222.355C1423.46 222.16 1423.81 222.061 1424.16 222.072C1424.5 222.083 1424.84 222.204 1425.12 222.418C1425.4 222.631 1425.6 222.926 1425.7 223.262C1425.8 223.597 1425.79 223.955 1425.68 224.285L1422.39 233.73C1422.25 234.148 1421.94 234.491 1421.54 234.683C1421.14 234.876 1420.69 234.902 1420.27 234.757C1419.85 234.612 1419.51 234.307 1419.32 233.909C1419.12 233.511 1419.1 233.053 1419.24 232.635L1420.89 227.913L1418.12 229.774C1417.91 229.919 1417.66 230.011 1417.4 230.045C1417.15 230.078 1416.89 230.051 1416.64 229.966C1416.4 229.881 1416.18 229.74 1416 229.555C1415.82 229.37 1415.68 229.145 1415.6 228.898L1414.59 225.723L1412.95 230.445C1412.8 230.863 1412.5 231.205 1412.1 231.398C1411.7 231.59 1411.24 231.617 1410.82 231.472C1410.41 231.327 1410.06 231.021 1409.87 230.624C1409.68 230.226 1409.65 229.768 1409.8 229.35L1413.08 219.905C1413.2 219.575 1413.41 219.289 1413.7 219.088C1413.99 218.887 1414.33 218.781 1414.68 218.786ZM1433.55 227.023C1433.69 226.605 1433.67 226.147 1433.47 225.749C1433.28 225.352 1432.94 225.046 1432.52 224.901C1432.1 224.756 1431.64 224.783 1431.25 224.975C1430.85 225.168 1430.54 225.51 1430.4 225.928L1428.44 231.573L1428.13 230.951C1427.94 230.561 1427.59 230.264 1427.18 230.124C1426.77 229.984 1426.31 230.012 1425.92 230.203C1425.53 230.393 1425.22 230.73 1425.08 231.142C1424.93 231.553 1424.95 232.006 1425.13 232.403L1427.19 236.646C1427.38 237.044 1427.72 237.349 1428.14 237.494C1428.56 237.639 1429.02 237.613 1429.41 237.42L1433.66 235.367C1434.05 235.17 1434.34 234.828 1434.48 234.414C1434.62 234 1434.6 233.547 1434.41 233.154C1434.21 232.76 1433.88 232.458 1433.47 232.31C1433.05 232.163 1432.6 232.184 1432.21 232.367L1431.58 232.668L1433.55 227.023Z" fill="white"/>
<g clip-path="url(#clip0_37_53)">
<path fill-rule="evenodd" clip-rule="evenodd" d="M1451.29 90.4788C1442.41 93.6902 1434.96 99.9353 1430.27 108.097C1425.58 116.259 1423.95 125.806 1425.68 135.031C1427.4 144.255 1432.37 152.556 1439.69 158.448C1447.01 164.341 1456.21 167.441 1465.64 167.194C1467.62 166.868 1467.9 165.464 1467.55 164.485C1467.2 163.507 1466.13 160.682 1465 157.584C1455.41 163.589 1450.82 157.748 1450.82 157.748C1447.56 154.052 1444.7 153.805 1444.7 153.805C1440.48 152.729 1444.14 151.454 1444.14 151.454C1447.99 150.361 1451.26 153.218 1451.26 153.218C1456.64 157.696 1461.46 154.095 1463.25 152.365C1462.71 149.838 1463.09 147.849 1463.83 146.533C1455.18 148.599 1445.3 148.564 1440.15 134.321C1438.77 130.645 1438.86 126.575 1440.4 122.952C1439.68 122.155 1437.03 118.838 1437.21 112.971C1437.21 112.971 1439.98 110.84 1448.87 113.066C1454.39 109.185 1460.86 106.849 1467.59 106.302C1472.99 98.9151 1476.48 98.7804 1476.48 98.7804C1480.37 103.166 1480.45 107.408 1480.41 108.495C1483.92 110.292 1486.59 113.372 1487.88 117.091C1493.03 131.366 1485.42 137.672 1477.43 141.595C1479.19 142.269 1481.2 144.097 1482.45 147.568C1484.25 152.542 1485.65 156.559 1486.1 157.784C1486.45 158.775 1487.55 159.688 1489.31 158.64C1496.72 152.803 1501.81 144.539 1503.67 135.327C1505.54 126.115 1504.05 116.555 1499.48 108.358C1494.91 100.161 1487.55 93.8605 1478.72 90.5841C1469.9 87.3077 1460.18 87.2688 1451.3 90.4743L1451.29 90.4788Z" fill="white"/>
<path d="M1447.34 152.245C1447.33 152.459 1447.05 152.622 1446.76 152.58C1446.48 152.538 1446.21 152.363 1446.23 152.14C1446.25 151.918 1446.52 151.764 1446.81 151.806C1447.1 151.848 1447.37 152.027 1447.34 152.245Z" fill="white"/>
<path d="M1449.47 153.378C1449.36 153.488 1449.22 153.559 1449.07 153.578C1448.92 153.597 1448.77 153.564 1448.64 153.483C1448.3 153.311 1448.12 152.972 1448.25 152.745C1448.38 152.518 1448.74 152.471 1449.08 152.642C1449.41 152.814 1449.6 153.15 1449.47 153.378Z" fill="white"/>
<path d="M1451.71 154.981C1451.54 155.224 1451.09 155.205 1450.76 154.963C1450.68 154.927 1450.61 154.876 1450.55 154.811C1450.49 154.747 1450.44 154.671 1450.41 154.588C1450.38 154.506 1450.37 154.418 1450.37 154.33C1450.38 154.242 1450.4 154.156 1450.44 154.077C1450.61 153.84 1451.06 153.853 1451.39 154.089C1451.72 154.324 1451.88 154.741 1451.71 154.981Z" fill="white"/>
<path d="M1454.46 156.327C1454.34 156.628 1453.9 156.717 1453.45 156.532C1453 156.347 1452.77 155.958 1452.89 155.662C1453.01 155.367 1453.45 155.279 1453.91 155.453C1454.37 155.627 1454.6 156.027 1454.46 156.327Z" fill="white"/>
<path d="M1457.7 156.52C1457.71 156.843 1457.34 157.124 1456.87 157.153C1456.41 157.182 1456 156.938 1455.98 156.614C1455.95 156.289 1456.33 155.999 1456.8 155.98C1457.28 155.962 1457.67 156.189 1457.7 156.52Z" fill="white"/>
<path d="M1460.83 155.624C1460.94 155.926 1460.69 156.31 1460.25 156.477C1459.8 156.644 1459.35 156.53 1459.24 156.228C1459.13 155.927 1459.38 155.543 1459.83 155.376C1460.27 155.208 1460.72 155.316 1460.83 155.624Z" fill="white"/>
<path d="M1463.51 154.121C1463.67 154.403 1463.48 154.829 1463.06 155.064C1462.64 155.299 1462.19 155.261 1462.02 154.986C1461.86 154.71 1462.07 154.274 1462.47 154.037C1462.88 153.801 1463.34 153.84 1463.51 154.121Z" fill="white"/>
</g>
<path d="M520.149 168.349L500.844 167.73C498.61 167.658 496.574 169.006 495.768 171.092L464.696 241.646C463.86 243.544 464.838 245.749 466.806 246.403L472.773 248.388C474.382 248.924 476.143 248.236 476.963 246.752L518.634 171.396C520.032 168.868 523.719 169.031 524.888 171.673L524.806 171.488C523.986 169.634 522.175 168.414 520.149 168.349Z" fill="white"/>
<g filter="url(#filter0_d_37_53)">
<path d="M546.95 228.905L534.428 243.61C532.979 245.312 530.612 245.912 528.526 245.106L455.41 220.665C453.443 220.007 452.469 217.801 453.307 215.904L455.85 210.152C456.536 208.602 458.229 207.761 459.879 208.151L543.676 227.977C546.487 228.642 548.846 225.803 547.676 223.161L547.758 223.346C548.579 225.2 548.265 227.361 546.95 228.905Z" fill="white"/>
</g>
<g filter="url(#filter1_d_37_53)">
<path d="M534.429 243.611C532.978 245.312 530.611 245.912 528.526 245.106C531.095 246.099 533.583 243.489 532.468 240.97L501.48 170.955C500.365 168.436 496.761 168.522 495.768 171.092C496.574 169.006 498.61 167.657 500.844 167.728L520.141 168.338C522.169 168.402 523.98 169.622 524.801 171.477L547.763 223.357C548.584 225.212 548.269 227.374 546.953 228.918L534.429 243.611Z" fill="white"/>
</g>
<g style="mix-blend-mode:overlay" opacity="0.25">
<path style="mix-blend-mode:overlay" opacity="0.25" fill-rule="evenodd" clip-rule="evenodd" d="M530.627 245.47C532.053 245.405 533.427 244.761 534.393 243.627L546.908 228.938C548.223 227.394 548.537 225.233 547.716 223.378L524.755 171.498C523.934 169.643 522.123 168.422 520.096 168.358L500.809 167.744C498.854 167.682 497.053 168.706 496.093 170.36C495.956 170.596 495.837 170.846 495.736 171.106L477.587 212.35L459.873 208.153C458.224 207.763 456.532 208.604 455.847 210.154L453.306 215.904C452.469 217.801 453.443 220.007 455.409 220.665L471.551 226.066L464.695 241.646C463.86 243.544 464.838 245.749 466.805 246.404L472.77 248.39C474.377 248.926 476.138 248.238 476.958 246.755L485.762 230.822L528.494 245.121C529.188 245.389 529.915 245.502 530.627 245.47ZM509.179 188.446L493.842 216.201L524.699 223.511L509.179 188.446Z" fill="url(#paint1_linear_37_53)"/>
</g>
<mask id="mask0_37_53" style="mask-type:alpha" maskUnits="userSpaceOnUse" x="0" y="0" width="404" height="300">
<rect width="404" height="300" fill="#343948"/>
</mask>
<g mask="url(#mask0_37_53)">
<path d="M116.076 203.962C114.645 204.39 113.134 204.549 111.543 204.44L-9.85143 188.415C-13.3195 187.893 -16.2953 186.737 -18.7787 184.947C-21.1368 182.924 -22.7702 180.392 -23.6791 177.352L-24.3206 175.206C-25.2294 172.165 -25.2265 169.242 -24.3118 166.436C-23.2718 163.398 -21.4454 160.709 -18.8326 158.369L73.8538 78.3527C75.1242 77.3885 76.4748 76.6926 77.9056 76.2649C80.946 75.3561 83.7706 75.6807 86.3795 77.2388C89.1137 78.5647 90.9352 80.7478 91.844 83.7882C92.4856 85.9343 92.3849 88.2049 91.5422 90.5999C90.8249 92.7626 89.5268 94.6119 87.6479 96.1476L3.90044 167.939L113.309 181.995C115.722 182.247 117.849 183.17 119.689 184.763C121.654 186.124 122.958 187.878 123.599 190.024C124.508 193.064 124.21 195.978 122.705 198.766C121.326 201.321 119.116 203.053 116.076 203.962Z" fill="white"/>
<path d="M177.459 230.327C174.24 231.289 171.237 231.018 168.449 229.513C165.84 227.955 164.081 225.656 163.173 222.615C162.852 221.542 162.719 220.121 162.774 218.351L171.72 -10.8099C171.794 -13.1699 172.511 -15.3326 173.872 -17.298C175.232 -19.2634 177.254 -20.647 179.937 -21.4489C183.156 -22.4112 186.07 -22.1133 188.679 -20.5551C191.467 -19.0505 193.315 -16.7779 194.224 -13.7375C194.545 -12.6644 194.677 -11.2429 194.622 -9.47289L185.677 219.688C185.603 222.048 184.885 224.211 183.525 226.176C182.164 228.141 180.142 229.525 177.459 230.327Z" fill="white"/>
<path d="M285.473 153.328C282.432 154.236 279.545 154.028 276.811 152.702C274.202 151.144 272.443 148.845 271.534 145.804C270.893 143.658 270.93 141.504 271.648 139.341C272.491 136.946 273.851 134.981 275.73 133.445L359.478 61.6532L250.07 47.5979C247.656 47.3452 245.467 46.5384 243.501 45.1776C241.661 43.5845 240.421 41.7149 239.779 39.5687C238.87 36.5283 239.105 33.7304 240.485 31.175C241.989 28.3873 244.262 26.5391 247.302 25.6303C248.912 25.1491 250.423 24.9897 251.835 25.1521L373.23 41.1771C376.698 41.6991 379.611 42.9714 381.969 44.9941C384.452 46.7846 386.148 49.2 387.057 52.2404L387.699 54.3866C388.608 57.427 388.542 60.4664 387.502 63.5049C386.587 66.311 384.823 68.8839 382.211 71.2235L289.524 151.24C288.433 152.15 287.082 152.846 285.473 153.328Z" fill="white"/>
</g>
<defs>
<filter id="filter0_d_37_53" x="431.672" y="186.723" width="137.871" height="80.071" filterUnits="userSpaceOnUse" color-interpolation-filters="sRGB">
<feFlood flood-opacity="0" result="BackgroundImageFix"/>
<feColorMatrix in="SourceAlpha" type="matrix" values="0 0 0 0 0 0 0 0 0 0 0 0 0 0 0 0 0 0 127 0" result="hardAlpha"/>
<feOffset/>
<feGaussianBlur stdDeviation="10.6667"/>
<feColorMatrix type="matrix" values="0 0 0 0 0 0 0 0 0 0 0 0 0 0 0 0 0 0 0.25 0"/>
<feBlend mode="overlay" in2="BackgroundImageFix" result="effect1_dropShadow_37_53"/>
<feBlend mode="normal" in="SourceGraphic" in2="effect1_dropShadow_37_53" result="shape"/>
</filter>
<filter id="filter1_d_37_53" x="474.435" y="146.392" width="95.1131" height="120.402" filterUnits="userSpaceOnUse" color-interpolation-filters="sRGB">
<feFlood flood-opacity="0" result="BackgroundImageFix"/>
<feColorMatrix in="SourceAlpha" type="matrix" values="0 0 0 0 0 0 0 0 0 0 0 0 0 0 0 0 0 0 127 0" result="hardAlpha"/>
<feOffset/>
<feGaussianBlur stdDeviation="10.6667"/>
<feColorMatrix type="matrix" values="0 0 0 0 0 0 0 0 0 0 0 0 0 0 0 0 0 0 0.25 0"/>
<feBlend mode="overlay" in2="BackgroundImageFix" result="effect1_dropShadow_37_53"/>
<feBlend mode="normal" in="SourceGraphic" in2="effect1_dropShadow_37_53" result="shape"/>
</filter>
<linearGradient id="paint0_linear_37_53" x1="960" y1="0" x2="960" y2="300" gradientUnits="userSpaceOnUse">
<stop offset="0.526042" stop-color="#0F1117"/>
<stop offset="1" stop-color="#0F1117" stop-opacity="0.83"/>
</linearGradient>
<linearGradient id="paint1_linear_37_53" x1="480.616" y1="176.112" x2="514.622" y2="252.946" gradientUnits="userSpaceOnUse">
<stop stop-color="white"/>
<stop offset="1" stop-color="white" stop-opacity="0"/>
</linearGradient>
<clipPath id="clip0_37_53">
<rect width="80" height="80" fill="white" transform="translate(1413 102.186) rotate(-19.8663)"/>
</clipPath>
</defs>
</svg>
