<svg width="20" height="20" viewBox="0 0 20 20" fill="none" xmlns="http://www.w3.org/2000/svg">
<path fill-rule="evenodd" clip-rule="evenodd" d="M7.50016 4.16667C7.50016 3.72464 7.67576 3.30072 7.98832 2.98816C8.30088 2.67559 8.7248 2.5 9.16683 2.5H10.8335C11.2755 2.5 11.6994 2.67559 12.012 2.98816C12.3246 3.30072 12.5002 3.72464 12.5002 4.16667V5H15.8335C16.0545 5 16.2665 5.0878 16.4228 5.24408C16.579 5.40036 16.6668 5.61232 16.6668 5.83333C16.6668 6.05435 16.579 6.26631 16.4228 6.42259C16.2665 6.57887 16.0545 6.66667 15.8335 6.66667H15.0002V15C15.0002 15.663 14.7368 16.2989 14.2679 16.7678C13.7991 17.2366 13.1632 17.5 12.5002 17.5H7.50016C6.83712 17.5 6.20124 17.2366 5.7324 16.7678C5.26355 16.2989 5.00016 15.663 5.00016 15V6.66667H4.16683C3.94582 6.66667 3.73385 6.57887 3.57757 6.42259C3.42129 6.26631 3.3335 6.05435 3.3335 5.83333C3.3335 5.61232 3.42129 5.40036 3.57757 5.24408C3.73385 5.0878 3.94582 5 4.16683 5H7.50016V4.16667ZM8.3335 6.66667H6.66683V15C6.66683 15.221 6.75463 15.433 6.91091 15.5893C7.06719 15.7455 7.27915 15.8333 7.50016 15.8333H12.5002C12.7212 15.8333 12.9331 15.7455 13.0894 15.5893C13.2457 15.433 13.3335 15.221 13.3335 15V6.66667H8.3335ZM10.8335 5H9.16683V4.16667H10.8335V5ZM8.3335 7.5C8.55451 7.5 8.76647 7.5878 8.92275 7.74408C9.07903 7.90036 9.16683 8.11232 9.16683 8.33333V14.1667C9.16683 14.3877 9.07903 14.5996 8.92275 14.7559C8.76647 14.9122 8.55451 15 8.3335 15C8.11248 15 7.90052 14.9122 7.74424 14.7559C7.58796 14.5996 7.50016 14.3877 7.50016 14.1667V8.33333C7.50016 8.11232 7.58796 7.90036 7.74424 7.74408C7.90052 7.5878 8.11248 7.5 8.3335 7.5ZM11.6668 7.5C11.8878 7.5 12.0998 7.5878 12.2561 7.74408C12.4124 7.90036 12.5002 8.11232 12.5002 8.33333V14.1667C12.5002 14.3877 12.4124 14.5996 12.2561 14.7559C12.0998 14.9122 11.8878 15 11.6668 15C11.4458 15 11.2339 14.9122 11.0776 14.7559C10.9213 14.5996 10.8335 14.3877 10.8335 14.1667V8.33333C10.8335 8.11232 10.9213 7.90036 11.0776 7.74408C11.2339 7.5878 11.4458 7.5 11.6668 7.5Z" fill="#36373C"/>
</svg>
