<svg width="20" height="20" viewBox="0 0 20 20" fill="none" xmlns="http://www.w3.org/2000/svg">
<path fill-rule="evenodd" clip-rule="evenodd" d="M17.6007 2.25583C17.1319 1.78715 16.4961 1.52386 15.8332 1.52386C15.1703 1.52386 14.5345 1.78715 14.0657 2.25583L12.6657 3.65583L6.07734 10.2442C5.97062 10.3508 5.89487 10.4845 5.85817 10.6308L5.02484 13.9642C4.98986 14.1038 4.99166 14.2502 5.03006 14.3889C5.06845 14.5277 5.14214 14.6541 5.24394 14.7559C5.34574 14.8577 5.47218 14.9314 5.61093 14.9698C5.74968 15.0082 5.89602 15.01 6.03567 14.975L9.369 14.1417C9.51536 14.105 9.649 14.0292 9.75567 13.9225L16.2965 7.3825L17.744 5.93416C18.2127 5.46535 18.476 4.82957 18.476 4.16666C18.476 3.50375 18.2127 2.86798 17.744 2.39916L17.6007 2.25583ZM15.244 3.43416C15.4003 3.27794 15.6122 3.19018 15.8332 3.19018C16.0541 3.19018 16.2661 3.27794 16.4223 3.43416L16.5657 3.5775C16.7219 3.73377 16.8097 3.94569 16.8097 4.16666C16.8097 4.38763 16.7219 4.59956 16.5657 4.75583L15.7182 5.60333L14.4223 4.25583L15.244 3.43416ZM13.244 5.43416L14.5398 6.78166L8.73984 12.5808L6.97817 13.0217L7.419 11.2592L13.244 5.43416ZM3.33317 6.66666C3.33317 6.44565 3.42097 6.23369 3.57725 6.07741C3.73353 5.92113 3.94549 5.83333 4.1665 5.83333H8.33317C8.55418 5.83333 8.76615 5.74553 8.92243 5.58925C9.07871 5.43297 9.1665 5.22101 9.1665 5C9.1665 4.77898 9.07871 4.56702 8.92243 4.41074C8.76615 4.25446 8.55418 4.16666 8.33317 4.16666H4.1665C3.50346 4.16666 2.86758 4.43006 2.39874 4.8989C1.9299 5.36774 1.6665 6.00362 1.6665 6.66666V15.8333C1.6665 16.4964 1.9299 17.1323 2.39874 17.6011C2.86758 18.0699 3.50346 18.3333 4.1665 18.3333H13.3332C13.9962 18.3333 14.6321 18.0699 15.1009 17.6011C15.5698 17.1323 15.8332 16.4964 15.8332 15.8333V11.6667C15.8332 11.4457 15.7454 11.2337 15.5891 11.0774C15.4328 10.9211 15.2209 10.8333 14.9998 10.8333C14.7788 10.8333 14.5669 10.9211 14.4106 11.0774C14.2543 11.2337 14.1665 11.4457 14.1665 11.6667V15.8333C14.1665 16.0543 14.0787 16.2663 13.9224 16.4226C13.7661 16.5789 13.5542 16.6667 13.3332 16.6667H4.1665C3.94549 16.6667 3.73353 16.5789 3.57725 16.4226C3.42097 16.2663 3.33317 16.0543 3.33317 15.8333V6.66666Z" fill="#36373C"/>
</svg>
