<svg width="30" height="30" viewBox="0 0 30 30" fill="none" xmlns="http://www.w3.org/2000/svg">
<path fill-rule="evenodd" clip-rule="evenodd" d="M12.6894 15.8964L8.19217 14.3973C5.83896 13.6129 4.66235 13.2207 4.66235 12.5C4.66235 11.7792 5.83896 11.387 8.19218 10.6026L21.2053 6.26488C22.8611 5.71295 23.689 5.43699 24.126 5.87401C24.5631 6.31102 24.2871 7.13892 23.7352 8.79471L19.3974 21.8079C18.613 24.1611 18.2208 25.3377 17.5001 25.3377C16.7793 25.3377 16.3871 24.1611 15.6027 21.8079L14.1036 17.3106L19.4572 11.9571C19.8477 11.5666 19.8477 10.9334 19.4572 10.5429C19.0667 10.1523 18.4335 10.1523 18.043 10.5429L12.6894 15.8964Z" fill="#101217"/>
</svg>
